<svg width="100" height="100" viewBox="0 0 100 100" fill="none" xmlns="http://www.w3.org/2000/svg">
<rect width="100" height="100" fill="#BCBCBC"/>
<path d="M43.664 59.456L43.408 49.152H45.392C47.7813 49.152 50 48.9173 52.048 48.448C54.1387 47.9787 55.824 47.0613 57.104 45.696C58.384 44.3307 59.024 42.2827 59.024 39.552C59.024 36.9067 58.192 34.816 56.528 33.28C54.9067 31.744 52.752 30.976 50.064 30.976C47.3333 30.976 45.1787 31.7227 43.6 33.216C42.0213 34.7093 41.232 36.7147 41.232 39.232H36.112C36.112 36.672 36.688 34.432 37.84 32.512C39.0347 30.592 40.6773 29.0987 42.768 28.032C43.8347 27.4773 44.9653 27.072 46.16 26.816C47.3973 26.56 48.6987 26.432 50.064 26.432C52.8373 26.432 55.2907 26.9653 57.424 28.032C59.5573 29.0987 61.2213 30.6133 62.416 32.576C63.0133 33.5573 63.4613 34.624 63.76 35.776C64.0587 36.928 64.208 38.1867 64.208 39.552C64.208 42.7093 63.5467 45.2693 62.224 47.232C60.9013 49.1947 59.0453 50.624 56.656 51.52C55.4613 51.9467 54.1813 52.288 52.816 52.544C51.4507 52.7573 50.0213 52.864 48.528 52.864L48.336 59.456H43.664ZM45.968 72.32C44.9013 72.32 44.0053 71.9787 43.28 71.296C42.5973 70.5707 42.256 69.696 42.256 68.672C42.256 67.648 42.5973 66.7947 43.28 66.112C44.0053 65.3867 44.9013 65.024 45.968 65.024C47.0347 65.024 47.9093 65.3867 48.592 66.112C49.2747 66.7947 49.616 67.648 49.616 68.672C49.616 69.696 49.2747 70.5707 48.592 71.296C47.9093 71.9787 47.0347 72.32 45.968 72.32Z" fill="#303030"/>
</svg>
